<?xml version="1.0" encoding="UTF-8" standalone="no"?>
<!-- Generator: Adobe Illustrator 24.2.1, SVG Export Plug-In . SVG Version: 6.00 Build 0)  -->

<svg
   xmlns:dc="http://purl.org/dc/elements/1.1/"
   xmlns:cc="http://creativecommons.org/ns#"
   xmlns:rdf="http://www.w3.org/1999/02/22-rdf-syntax-ns#"
   xmlns:svg="http://www.w3.org/2000/svg"
   xmlns="http://www.w3.org/2000/svg"
   xmlns:sodipodi="http://sodipodi.sourceforge.net/DTD/sodipodi-0.dtd"
   xmlns:inkscape="http://www.inkscape.org/namespaces/inkscape"
   version="1.1"
   id="Layer_1"
   x="0px"
   y="0px"
   viewBox="0 0 1200 1200"
   style="enable-background:new 0 0 1200 1200;"
   xml:space="preserve"
   sodipodi:docname="CJUR-white.svg"
   inkscape:version="0.92.3 (2405546, 2018-03-11)"><metadata
   id="metadata5175"><rdf:RDF><cc:Work
       rdf:about=""><dc:format>image/svg+xml</dc:format><dc:type
         rdf:resource="http://purl.org/dc/dcmitype/StillImage" /></cc:Work></rdf:RDF></metadata><defs
   id="defs5173" /><sodipodi:namedview
   pagecolor="#ffffff"
   bordercolor="#666666"
   borderopacity="1"
   objecttolerance="10"
   gridtolerance="10"
   guidetolerance="10"
   inkscape:pageopacity="0"
   inkscape:pageshadow="2"
   inkscape:window-width="732"
   inkscape:window-height="480"
   id="namedview5171"
   showgrid="false"
   inkscape:zoom="0.19666667"
   inkscape:cx="600"
   inkscape:cy="600"
   inkscape:window-x="0"
   inkscape:window-y="0"
   inkscape:window-maximized="0"
   inkscape:current-layer="g5168" />
<style
   type="text/css"
   id="style5158">
	.st0{fill:#FFFFFF;}
</style>
<g
   id="g5168">
	<path
   class="st0"
   d="m 195,327.426 v 545.0815 c 0,128.3545 49.4,213.788 143.8,240.426 V 87 C 244.4,113.638 195,199.081 195,327.426 Z"
   id="path5160"
   inkscape:connector-curvature="0"
   style="fill:#74846c;stroke-width:0.97467941" />
	<path
   class="st0"
   d="m 411.7,87 v 787.854 c 0,4.9495 -0.17,9.6805 -0.46,14.2405 v 223.8485 c 97.48,-22.724 144.75,-102.106 144.75,-242.497 V 87 Z"
   id="path5162"
   inkscape:connector-curvature="0"
   style="fill:#74846c;stroke-width:0.97467941" />
	<path
   class="st0"
   d="m 628.7,87 v 778.7245 c 0,133.2375 48.9,219.868 143.82,247.2755 V 87 Z"
   id="path5164"
   inkscape:connector-curvature="0"
   style="fill:#74846c;stroke-width:0.97467941" />
	<path
   class="st0"
   d="m 1005,1112.943 c -14.43,-38.38 -15.74,-75.278 -15.74,-125.4665 v -181.564 c 0,-116.6125 -23.61,-193.363 -95.76,-218.462 v -2.9545 c 64.27,-29.526 94.44,-97.4225 94.44,-203.699 V 317.3275 C 987.95,186.0185 944.32,109.8 845.38,87 v 934.99 c 1.37,53.675 6.12,68.704 12.71,90.953 z"
   id="path5166"
   inkscape:connector-curvature="0"
   style="fill:#74846c;stroke-width:0.97467941" />
</g>
</svg>